<svg xmlns="http://www.w3.org/2000/svg" viewBox="0 0 512 512" role="img" aria-labelledby="title desc">
  <title id="title">Painter's Reference Lab icon</title>
  <desc id="desc">A painter palette with tonal study tiles.</desc>
  <rect width="512" height="512" rx="112" fill="#f4f1ea" />
  <rect x="58" y="58" width="396" height="396" rx="88" fill="#fffdf8" stroke="#d9d2c4" stroke-width="18" />
  <path d="M273 110c-87.7 0-159 67.6-159 151 0 40.9 18.2 75.6 47.8 100.8 15.6 13.2 24.2 32.2 24.2 52.7 0 22 17.9 39.9 39.9 39.9h35.4c22.4 0 40.7-18.2 40.7-40.7 0-15.9 12.9-28.8 28.8-28.8h19.9c58.7 0 106.3-47.6 106.3-106.3 0-93-82.4-168.6-184-168.6Z" fill="#2f2a24" />
  <circle cx="196" cy="188" r="28" fill="#ffffff" />
  <circle cx="256" cy="158" r="24" fill="#f5e18c" />
  <circle cx="322" cy="190" r="26" fill="#d9d2c4" />
  <rect x="146" y="300" width="78" height="78" rx="16" fill="#ffffff" stroke="#d9d2c4" stroke-width="10" />
  <rect x="234" y="300" width="78" height="78" rx="16" fill="#7f7f7f" stroke="#d9d2c4" stroke-width="10" />
  <rect x="322" y="300" width="78" height="78" rx="16" fill="#2f2a24" stroke="#d9d2c4" stroke-width="10" />
</svg>
